<?xml version="1.0" encoding="UTF-8"?>
<!DOCTYPE svg PUBLIC "-//W3C//DTD SVG 1.1//EN" "http://www.w3.org/Graphics/SVG/1.1/DTD/svg11.dtd">
<!-- Creator: CorelDRAW X7 -->
<?xml-stylesheet href="loading.css" type="text/css"?>
<svg xmlns="http://www.w3.org/2000/svg" xml:space="preserve" width="0.622039in" height="0.666598in" version="1.1" style="shape-rendering:geometricPrecision; text-rendering:geometricPrecision; image-rendering:optimizeQuality; fill-rule:evenodd; clip-rule:evenodd"
viewBox="0 0 94 101"
 xmlns:xlink="http://www.w3.org/1999/xlink">
 <g id="Layer_x0020_1">
  <metadata id="CorelCorpID_0Corel-Layer"/>
  <path class="fil0" d="M47 7c-26,0 -47,21 -47,47 0,26 21,47 47,47 26,-1 47,-22 47,-48 0,-12 -4,-23 -12,-31l0 -22 -21 8c-5,-1 -9,-2 -14,-1l0 0zm4 25c0,0 1,0 2,0l-3 10 14 1c-7,21 -12,33 -26,32l8 -22 -16 0c4,-11 6,-22 21,-21l0 0z"/>
 </g>
</svg>
